<?xml version="1.0" standalone="no"?>
<!DOCTYPE svg PUBLIC "-//W3C//DTD SVG 20010904//EN"
 "http://www.w3.org/TR/2001/REC-SVG-20010904/DTD/svg10.dtd">
<svg version="1.0" xmlns="http://www.w3.org/2000/svg"
 width="300.000000pt" height="300.000000pt" viewBox="0 0 300.000000 300.000000"
 preserveAspectRatio="xMidYMid meet">

<g transform="translate(0.000000,300.000000) scale(0.100000,-0.100000)"
fill="#000000" stroke="none">
<path d="M2132 2991 c2 -9 -17 -13 -68 -14 -45 -1 -70 -6 -67 -12 2 -6 -6 -11
-17 -12 -11 -1 -20 4 -20 10 0 8 -3 8 -9 -1 -7 -12 -59 -13 -96 -2 -5 2 -17 0
-26 -4 -8 -4 -35 2 -59 13 l-43 19 -35 -26 c-33 -25 -39 -26 -172 -26 -76 0
-136 -4 -134 -8 3 -5 12 -8 20 -8 8 0 14 -5 14 -11 0 -8 6 -7 17 2 11 10 14
10 9 2 -5 -9 1 -13 21 -13 39 0 62 -15 34 -23 -12 -3 -19 -1 -16 4 3 4 -7 2
-22 -6 -15 -8 -38 -15 -49 -15 -38 0 -179 -32 -189 -42 -7 -8 -6 -8 4 -3 9 5
12 4 7 -3 -4 -7 -14 -12 -22 -12 -8 0 -14 -5 -14 -11 0 -5 6 -7 13 -3 6 4 8 3
4 -1 -12 -14 -38 -15 -31 -2 4 7 -3 2 -15 -10 -12 -13 -29 -23 -37 -23 -9 0
-12 -5 -8 -11 4 -8 -1 -9 -17 -4 -22 7 -22 7 -6 -10 14 -13 15 -20 6 -31 -6
-8 -14 -14 -16 -14 -3 0 0 7 7 15 20 24 -7 18 -32 -7 -13 -13 -33 -24 -46 -26
-36 -5 -24 29 18 50 48 24 13 23 -44 -2 -26 -11 -48 -20 -51 -20 -3 0 -6 0 -7
-1 -6 -1 -34 -7 -62 -13 -16 -3 -33 -11 -38 -18 -4 -7 -8 -8 -8 -3 0 6 -10 -1
-21 -15 -11 -14 -17 -18 -13 -10 5 11 2 10 -13 -2 -25 -23 -51 -25 -29 -2 23
22 20 30 -3 10 -20 -18 -18 -52 2 -39 6 4 7 1 3 -6 -5 -7 -11 -10 -14 -7 -3 3
-15 -2 -26 -11 l-21 -18 20 24 20 24 -27 -17 c-15 -10 -38 -32 -52 -51 -24
-31 -24 -33 -7 -49 16 -15 20 -13 51 19 18 19 37 32 42 29 5 -3 7 0 6 7 -2 7
4 13 12 14 8 0 15 7 15 15 0 8 7 15 15 15 8 1 14 6 13 13 -2 6 6 16 17 22 11
6 20 8 20 5 0 -3 11 2 25 11 13 8 29 12 36 8 8 -5 6 -10 -7 -18 -19 -11 -25
-12 -46 -15 -10 -1 -10 -3 -2 -9 8 -4 -11 -31 -52 -76 -39 -42 -64 -62 -64
-52 0 10 -5 14 -10 11 -6 -4 -7 -12 -4 -18 4 -7 4 -9 -1 -5 -7 7 -28 -10 -138
-109 -21 -19 -35 -39 -31 -45 4 -7 3 -8 -4 -4 -6 4 -17 -2 -24 -14 -7 -11 -20
-20 -28 -21 -9 0 -10 -3 -3 -5 8 -4 4 -18 -12 -46 -13 -23 -22 -45 -19 -50 3
-4 -3 -8 -13 -8 -15 0 -16 -2 -3 -10 12 -8 12 -10 1 -10 -8 0 -11 -3 -8 -6 6
-6 -21 -63 -35 -74 -27 -21 -49 -216 -28 -251 12 -19 23 27 11 49 -8 14 -6 19
5 19 10 0 14 -12 15 -41 1 -107 9 -157 33 -203 30 -58 65 -111 67 -100 1 4 2
11 3 16 0 5 4 13 8 16 4 4 1 20 -7 36 -8 15 -15 36 -14 46 0 14 3 12 11 -7 6
-14 12 -27 13 -30 11 -30 22 -49 42 -72 14 -14 24 -30 23 -34 -1 -5 3 -10 9
-12 6 -2 11 2 11 10 1 8 6 6 15 -6 14 -19 15 -19 15 -1 0 17 2 16 25 -5 13
-12 22 -28 19 -34 -3 -6 2 -2 10 8 9 11 16 28 16 38 0 22 25 75 47 100 23 26
44 127 32 151 -8 14 -8 22 1 31 6 6 11 7 10 1 -6 -29 2 -45 21 -45 11 0 18 -4
15 -8 -3 -4 8 -7 25 -6 16 1 27 -2 24 -6 -3 -4 2 -13 10 -20 8 -7 15 -19 15
-26 0 -8 3 -13 8 -12 13 3 77 -14 90 -25 14 -11 112 -16 112 -5 0 6 35 21 53
23 4 0 11 5 15 11 4 6 15 10 24 8 14 -2 16 1 8 17 -9 15 -8 17 6 12 13 -5 15
-3 9 7 -8 13 12 12 91 -4 28 -6 54 11 36 23 -11 6 -10 10 3 15 10 4 15 12 11
22 -3 9 -2 12 5 9 6 -4 8 -12 6 -19 -3 -8 5 -11 27 -8 25 3 38 -3 66 -33 32
-33 33 -37 21 -58 -13 -20 -13 -21 2 -8 15 11 17 11 17 -1 0 -8 13 -27 30 -43
16 -15 29 -31 28 -34 -1 -3 6 -22 15 -41 9 -19 17 -30 17 -25 0 6 5 2 11 -8 5
-9 7 -22 3 -29 -4 -6 -3 -8 4 -4 6 3 13 -6 17 -24 4 -16 11 -30 16 -30 6 0 7
4 4 10 -3 5 -1 18 4 27 9 16 10 16 11 2 0 -9 9 -28 20 -41 10 -14 17 -28 14
-31 -3 -2 6 -17 20 -32 l24 -26 5 23 c4 22 4 22 6 1 0 -12 11 -29 23 -37 21
-15 23 -14 35 7 8 13 12 16 13 7 0 -10 5 -8 15 7 8 12 14 32 14 45 -1 12 -1
28 1 33 7 28 -1 55 -17 56 -12 1 -10 4 7 9 14 4 19 8 12 9 -8 1 -10 6 -6 14 6
9 5 9 -7 0 -12 -10 -15 -8 -16 8 -1 11 2 17 7 14 6 -3 7 1 4 10 -5 13 -9 13
-23 3 -14 -12 -15 -11 -2 5 13 16 15 16 45 -7 17 -14 30 -30 28 -36 -1 -6 2
-9 7 -6 5 4 12 2 16 -4 3 -5 -2 -10 -12 -11 -11 0 -13 -3 -5 -6 7 -3 19 1 28
7 13 11 12 15 -3 32 -9 10 -18 26 -19 34 -1 8 -14 27 -28 41 -15 14 -23 29
-20 32 4 3 9 0 11 -7 3 -6 9 -10 14 -6 5 3 9 1 9 -4 0 -6 8 -13 17 -16 10 -4
14 -4 11 -1 -4 4 -3 18 2 31 6 16 6 24 -1 24 -6 0 -6 6 1 19 12 24 13 64 1 57
-5 -4 -4 5 2 18 13 28 21 25 23 -7 1 -12 3 -35 4 -52 2 -16 0 -47 -5 -68 -6
-31 -4 -42 10 -55 10 -10 15 -12 11 -6 -3 7 1 15 9 18 8 3 15 9 14 13 -4 22 3
33 21 33 11 0 19 3 19 8 -3 20 2 32 16 32 8 0 26 21 40 48 l24 47 -5 -37 c-6
-41 12 -61 31 -35 7 10 18 17 25 17 7 0 10 7 6 15 -3 9 0 15 9 15 18 0 18 -5
4 -31 -5 -11 -14 -17 -20 -14 -17 11 -9 -4 14 -26 l22 -21 -24 12 c-21 11 -23
10 -18 -4 4 -9 2 -15 -5 -13 -6 1 -12 -3 -15 -10 -3 -7 3 -10 15 -6 11 2 23
-1 27 -8 5 -7 4 -10 -2 -6 -6 4 -14 0 -17 -9 -3 -8 -2 -12 4 -9 5 3 5 -7 -1
-25 -6 -16 -15 -33 -21 -36 -6 -4 -5 2 1 14 20 38 11 37 -14 -1 -14 -20 -24
-41 -22 -45 2 -4 -3 -20 -13 -37 -20 -36 -83 -64 -109 -48 -26 16 -61 -2 -61
-32 0 -17 -4 -24 -11 -19 -7 4 -7 -1 1 -16 7 -12 8 -20 2 -16 -5 3 -13 -1 -16
-10 -9 -24 -7 -31 4 -14 5 8 10 11 10 5 -1 -5 -7 -19 -15 -29 -8 -11 -15 -15
-15 -8 0 6 -14 -3 -31 -20 -27 -29 -29 -33 -12 -40 16 -7 16 -8 -2 -5 -11 2
-19 9 -17 15 1 7 -2 12 -8 12 -5 0 -10 -5 -10 -10 0 -7 -6 -7 -20 0 -16 9 -18
8 -14 -5 4 -9 3 -15 -2 -13 -5 2 -9 -1 -9 -7 0 -5 3 -9 6 -8 3 1 6 -5 6 -13 0
-17 -14 -19 -19 -2 -5 13 -28 2 -28 -13 0 -6 4 -8 9 -4 5 3 13 1 16 -5 4 -6 3
-10 -2 -9 -25 4 -35 -3 -30 -22 4 -16 3 -18 -8 -9 -10 8 -15 8 -21 -1 -5 -8
-3 -9 6 -4 8 5 11 3 8 -6 -3 -8 -15 -13 -27 -13 -12 1 -19 -1 -17 -4 3 -3 -2
-11 -12 -19 -9 -8 -11 -11 -3 -7 8 4 12 3 8 -3 -4 -5 -22 -9 -42 -8 -19 2 -33
0 -31 -4 4 -8 -31 -41 -37 -34 -3 2 -15 -1 -28 -8 -19 -10 -20 -13 -8 -23 17
-13 23 -36 10 -36 -5 0 -12 6 -14 13 -4 9 -6 9 -6 0 -1 -6 3 -14 8 -18 6 -3
-9 -23 -31 -45 -23 -21 -46 -36 -51 -33 -6 3 -7 1 -3 -5 3 -6 -2 -13 -13 -17
-11 -3 -37 -27 -58 -53 -64 -79 -76 -92 -86 -92 -5 0 -20 -9 -34 -20 -14 -11
-29 -17 -34 -14 -5 3 -9 0 -9 -6 0 -7 -6 -8 -17 -1 -10 5 -26 5 -41 0 -15 -6
-21 -5 -17 1 5 9 -23 15 -47 11 -5 0 -8 3 -8 8 0 5 -8 8 -17 6 -10 -2 -22 -4
-26 -4 -5 -1 -5 -5 -2 -11 3 -6 -1 -7 -9 -4 -9 3 -17 2 -17 -2 -9 -64 -7 -70
24 -65 4 0 6 -5 5 -11 -2 -8 7 -13 20 -12 12 0 22 -4 22 -9 0 -5 7 -4 15 3 12
10 15 10 15 -1 0 -11 2 -11 10 1 9 13 10 13 10 0 0 -13 1 -13 10 0 8 12 10 12
10 1 0 -11 3 -11 17 0 15 12 16 12 8 -1 -8 -13 -7 -13 8 -1 9 7 17 10 18 5 0
-5 4 0 9 11 7 17 9 17 9 3 1 -14 10 -18 36 -18 19 0 35 -4 35 -10 0 -5 19 -3
41 5 61 22 110 18 165 -11 49 -26 141 -112 136 -127 -1 -5 2 -6 8 -2 24 15 48
-117 27 -146 -13 -17 -33 -25 -87 -34 -77 -12 -203 -59 -233 -86 -17 -15 -34
-26 -38 -23 -4 2 -9 0 -11 -6 -1 -5 -16 -11 -33 -13 -16 -3 -41 -9 -55 -14
-75 -31 -123 -43 -134 -34 -7 6 -21 1 -41 -15 l-30 -23 420 2 c368 2 420 4
416 17 -13 52 -12 62 8 84 17 18 19 26 10 31 -7 5 -10 4 -6 -2 4 -6 -4 -20
-17 -32 l-23 -22 0 25 c0 14 3 26 7 26 4 0 11 7 14 16 5 14 4 15 -9 4 -26 -22
-16 6 13 36 15 16 36 40 47 53 18 23 17 22 -20 -4 -31 -23 -36 -25 -21 -7 11
12 16 22 11 22 -4 0 3 9 16 21 l24 21 -22 -5 c-27 -6 -42 10 -19 19 9 3 16 11
16 17 0 7 -4 7 -12 -1 -17 -17 -31 -15 -24 3 3 8 0 15 -7 15 -7 0 3 12 21 26
17 14 32 31 32 37 0 6 -7 1 -16 -11 -8 -12 -21 -22 -29 -22 -23 0 -29 22 -10
37 11 7 15 13 9 13 -5 0 -1 5 9 11 11 7 16 17 12 29 -3 10 -1 21 5 25 5 3 10
11 10 16 0 6 -5 7 -10 4 -6 -3 -10 -2 -10 3 0 6 7 13 16 16 8 3 12 11 9 16 -5
8 -11 7 -21 -1 -8 -6 -17 -9 -20 -6 -3 3 4 10 15 17 12 6 19 16 15 21 -3 6 2
20 13 31 12 14 13 18 3 13 -12 -7 -13 -6 -3 7 7 8 11 17 8 20 -3 3 2 11 12 19
11 9 14 10 9 1 -4 -7 -2 -12 4 -12 6 0 8 -5 4 -12 -4 -7 7 -2 24 10 17 13 35
28 38 35 4 7 -2 3 -15 -7 -18 -16 -24 -17 -34 -6 -9 10 -9 11 1 6 7 -5 12 -1
12 10 0 10 3 15 6 12 3 -3 19 7 36 23 17 15 35 26 39 23 4 -2 10 0 13 5 7 11
-8 8 -44 -6 -34 -14 -40 -5 -11 18 25 20 13 26 -20 9 -28 -15 -23 -5 7 15 20
13 28 14 40 4 10 -8 14 -8 14 0 0 6 -5 11 -11 11 -6 0 -7 6 -2 13 4 6 -5 4
-20 -6 -16 -10 -34 -16 -40 -13 -9 3 -8 5 1 5 7 1 11 5 8 10 -3 5 2 8 12 7 10
0 16 5 14 13 -2 8 3 11 12 8 18 -7 30 8 21 23 -5 8 -11 7 -21 -1 -8 -6 -14 -8
-14 -4 0 4 -7 2 -15 -5 -8 -7 -15 -9 -15 -5 0 4 -6 2 -13 -4 -10 -8 -14 -7
-14 4 0 8 7 17 15 20 8 3 12 12 8 21 -5 14 -4 15 9 4 9 -7 18 -10 22 -6 3 3 1
6 -5 6 -6 0 -9 7 -5 17 5 11 3 14 -6 8 -8 -4 -7 2 3 17 9 14 13 28 9 31 -3 4
0 7 8 7 12 0 12 2 -1 10 -12 7 -11 12 5 30 14 16 15 19 3 15 -9 -4 -18 0 -22
10 -3 9 -2 13 3 10 11 -6 26 33 22 54 -2 9 3 12 14 7 9 -3 14 -2 11 3 -6 10
21 35 47 44 13 5 16 3 11 -6 -6 -9 -4 -9 7 -2 12 9 55 11 127 7 16 -1 21 -6
16 -14 -4 -7 2 -5 13 4 26 24 41 23 20 0 -10 -10 -15 -21 -12 -23 2 -3 -5 -6
-15 -7 -55 -5 -54 -4 -36 -18 11 -8 13 -14 7 -19 -6 -3 -11 -2 -11 3 0 5 -9
12 -20 15 -11 3 -18 1 -15 -3 3 -5 1 -11 -5 -15 -5 -3 -10 -11 -10 -16 0 -6 7
-3 16 5 19 20 21 20 21 1 0 -8 -7 -17 -14 -19 -8 -4 -11 -11 -7 -18 5 -8 0 -7
-11 2 -12 10 -16 10 -11 2 4 -7 2 -19 -4 -28 -11 -12 -9 -12 16 1 33 17 48 19
39 6 -3 -6 3 -8 13 -6 34 6 45 -10 21 -31 -15 -12 -20 -14 -15 -4 4 8 -1 4
-12 -10 -12 -14 -18 -27 -16 -30 3 -2 8 0 12 5 4 6 15 11 24 13 15 2 16 -1 8
-23 -13 -35 -13 -40 5 -25 8 7 12 17 8 24 -3 6 -2 8 2 3 5 -4 18 -1 30 7 15
10 26 11 36 4 11 -8 10 -9 -5 -4 -13 4 -17 2 -13 -8 4 -10 0 -12 -14 -9 -10 3
-19 0 -19 -6 0 -6 12 -12 28 -12 16 -1 20 -3 10 -6 -14 -4 -16 -8 -7 -24 5
-11 14 -17 20 -14 5 4 9 1 9 -5 0 -7 -7 -10 -15 -6 -9 3 -15 0 -15 -9 0 -8 8
-15 17 -15 15 0 14 -2 -2 -14 -18 -13 -15 -13 23 -6 46 8 59 0 43 -27 -6 -10
-11 -13 -11 -6 0 6 -7 10 -15 9 -23 -3 -30 -16 -9 -16 11 0 29 -7 40 -15 19
-15 19 -15 -1 -9 -15 4 -13 1 5 -10 14 -8 19 -15 11 -16 -11 0 -11 -3 -1 -15
6 -8 8 -20 4 -26 -5 -8 -3 -9 5 -4 8 4 11 21 9 41 -2 19 0 34 4 34 4 0 8 -12
8 -26 0 -15 4 -23 10 -19 15 10 7 -17 -10 -35 -9 -8 -14 -14 -11 -13 2 2 11
-3 20 -10 14 -11 14 -10 2 6 -14 18 -5 22 23 11 9 -3 14 -10 11 -14 -3 -5 4
-11 15 -15 24 -8 26 -22 4 -27 -10 -2 -5 -9 18 -22 18 -10 27 -13 21 -5 -19
19 -16 38 5 36 10 0 19 -7 19 -14 0 -6 -4 -10 -7 -8 -4 3 -7 -7 -7 -20 0 -14
3 -25 7 -25 4 0 6 -11 5 -25 -4 -29 10 -34 20 -8 6 16 8 16 26 -6 10 -13 19
-19 19 -13 0 5 9 12 20 15 12 3 17 1 14 -5 -3 -5 2 -16 12 -24 18 -14 17 -14
-4 -4 -13 7 -26 9 -29 6 -3 -3 5 -10 18 -15 13 -5 37 -20 53 -34 17 -14 34
-23 39 -20 4 3 11 -5 14 -17 3 -12 17 -27 32 -33 l26 -11 -30 -3 c-52 -6 -76
-13 -71 -22 3 -4 -6 -7 -19 -5 -14 1 -36 -7 -50 -18 -14 -11 -32 -17 -41 -14
-8 3 -12 2 -9 -4 5 -8 -12 -14 -35 -12 -15 1 -52 -37 -46 -47 6 -9 11 -9 21
-1 25 21 89 50 110 50 31 0 65 11 60 19 -2 4 2 8 10 8 8 0 12 -4 10 -8 -3 -4
2 -10 11 -13 11 -4 15 -2 11 7 -3 8 1 14 9 14 7 0 11 -5 8 -11 -3 -6 3 -2 13
9 16 18 36 22 68 15 33 -8 82 1 82 15 0 8 -6 15 -14 15 -7 0 -13 4 -13 9 0 4
19 5 43 0 56 -11 65 -11 47 1 -13 8 -57 15 -145 23 -11 1 -27 10 -36 20 -18
19 -34 23 -24 6 4 -6 -2 -5 -14 3 -12 7 -17 14 -11 16 6 2 7 8 4 13 -3 6 -11
3 -17 -6 -11 -14 -13 -13 -24 4 -11 18 -10 19 5 14 14 -5 14 -3 -3 14 -11 10
-28 22 -39 26 -11 4 -16 13 -12 22 3 9 -4 21 -19 31 -14 9 -25 21 -25 28 0 7
4 6 9 -2 6 -11 10 -10 15 4 3 9 4 19 1 22 -3 3 -5 1 -5 -4 0 -5 -11 -10 -26
-10 -21 -2 -23 0 -9 10 15 11 15 14 0 41 -14 28 -14 31 4 46 18 15 18 16 -3
25 -19 8 -21 17 -22 86 0 42 3 75 8 72 4 -3 8 -17 8 -31 l0 -25 21 23 20 24
-11 -24 c-9 -18 -9 -22 0 -16 7 4 16 2 20 -5 5 -8 11 -1 19 20 6 18 8 37 4 43
-3 5 -1 7 5 3 5 -3 20 6 32 21 l22 28 -16 -27 c-9 -15 -16 -35 -15 -45 0 -10
9 -1 19 22 10 22 18 42 18 45 0 3 7 22 15 43 9 21 12 35 7 32 -5 -3 -3 7 5 22
8 15 14 39 14 53 -1 23 -2 23 -9 -5 -6 -25 -8 -26 -9 -7 0 12 6 34 15 47 10
15 12 25 5 25 -13 0 -2 62 13 72 6 4 8 8 4 8 -9 0 28 107 48 138 8 13 21 40
29 61 11 31 11 38 0 38 -7 0 -11 -6 -8 -13 2 -7 -13 -47 -35 -89 -25 -48 -42
-71 -45 -61 -3 8 0 17 7 19 7 3 16 16 19 29 6 22 5 22 -8 4 -18 -24 -19 -16
-4 18 7 14 15 23 20 20 4 -2 8 4 7 13 -1 47 13 116 28 136 15 20 16 20 11 2
-2 -11 -8 -29 -13 -40 -7 -19 -7 -19 9 -3 10 10 18 34 19 60 1 24 6 51 12 62
8 14 8 20 -1 23 -7 3 -13 17 -13 32 0 28 25 56 57 63 10 2 17 10 15 17 -2 8 5
22 14 32 9 11 12 19 6 19 -6 0 -13 -6 -15 -12 -3 -7 -6 1 -6 17 -1 23 2 26 9
15 15 -24 12 -1 -6 36 -9 19 -20 31 -25 29 -4 -3 -6 3 -4 14 3 18 -25 36 -50
31 -5 -1 -7 2 -3 6 4 4 3 13 -4 21 -6 7 -8 16 -5 20 4 3 2 12 -5 20 -6 8 -7
13 -2 12 23 -4 29 4 32 40 2 41 -13 65 -24 37 -3 -9 -12 -16 -20 -16 -8 0 -1
13 16 30 28 29 41 58 21 45 -5 -3 -13 -1 -16 5 -4 6 -1 9 7 8 8 -2 12 4 10 16
-2 11 1 15 7 11 6 -3 11 0 11 7 0 10 3 9 9 -2 6 -8 8 -17 5 -21 -2 -4 1 -11 7
-15 7 -4 9 -3 5 4 -3 6 -1 14 5 18 6 3 15 0 20 -7 15 -23 10 -2 -8 36 -9 19
-21 35 -25 35 -5 0 -6 6 -2 13 5 8 2 8 -9 -2 -17 -13 -23 -6 -18 22 0 4 -9 7
-22 8 -20 0 -20 1 -3 8 17 7 17 8 -5 23 -41 27 -79 70 -72 82 4 6 0 6 -9 -2
-13 -10 -17 -10 -22 3 -4 11 -2 14 6 9 7 -4 8 -3 4 4 -4 7 -14 12 -22 12 -8 0
-13 3 -13 8 3 20 -3 32 -17 32 -10 0 -14 -6 -10 -15 3 -8 1 -15 -4 -15 -9 0
-14 21 -11 42 0 4 -13 18 -30 32 -17 14 -26 26 -20 26 6 0 15 9 21 20 7 14 7
20 0 20 -5 0 -10 -8 -10 -17 0 -15 -2 -16 -10 -3 -5 8 -7 22 -4 32 2 9 0 19
-6 23 -5 3 -10 12 -10 18 0 7 5 4 11 -6 6 -9 15 -15 20 -11 6 3 13 -3 16 -15
3 -12 10 -21 15 -21 5 0 6 5 3 10 -3 6 -3 15 1 21 4 8 9 7 15 -2 5 -8 9 -9 9
-4 0 6 -5 17 -10 25 -6 9 -10 11 -10 3 0 -7 -7 -10 -15 -7 -14 6 -13 8 2 19
17 13 17 13 -2 12 -12 -1 -19 3 -17 11 1 8 -2 11 -8 7 -5 -3 -13 1 -16 9 -3 9
-10 16 -16 16 -5 0 -6 -6 -2 -12 5 -9 3 -9 -9 1 -9 7 -14 17 -11 22 3 5 1 9
-4 9 -5 0 -14 -10 -19 -23 -6 -13 -18 -24 -27 -24 -8 0 -13 4 -10 9 3 5 10 6
15 3 5 -4 9 -1 9 4 0 6 -9 11 -20 11 -11 0 -20 4 -20 9 0 4 12 7 28 4 l27 -3
-25 11 c-14 6 -37 12 -53 13 -15 1 -33 9 -40 16 -10 12 -9 12 3 3 8 -6 24 -7
35 -3 12 4 31 0 50 -10 18 -10 38 -14 50 -10 16 6 11 9 -22 14 -24 4 -43 12
-43 17 0 5 -12 6 -27 4 -32 -6 -89 37 -77 57 4 6 3 8 -4 4 -6 -3 -25 2 -42 13
-29 17 -30 20 -13 30 16 10 15 10 -7 8 -16 -1 -25 3 -25 13 -1 8 -7 14 -15 12
-23 -5 -67 18 -80 44 -8 13 -20 24 -27 24 -8 0 -11 5 -7 12 5 8 2 9 -11 4 -14
-5 -16 -4 -6 7 9 11 8 17 -4 27 -13 11 -15 11 -13 1z m-392 -43 c0 -5 -5 -8
-11 -8 -5 0 -7 5 -4 10 3 6 1 10 -5 10 -6 0 -8 5 -4 11 6 11 23 -6 24 -23z
m-39 -96 c-7 -13 -6 -23 2 -32 10 -10 8 -12 -11 -7 -14 3 -20 1 -16 -5 4 -6
-4 -20 -17 -30 -20 -16 -17 -16 14 2 29 17 41 20 50 11 6 -6 8 -11 4 -11 -4 0
-3 -8 2 -18 7 -13 6 -19 -2 -20 -42 -3 -55 -7 -54 -15 1 -5 -18 -20 -42 -33
-24 -13 -50 -29 -58 -36 -18 -15 -35 -18 -90 -21 -22 -1 -36 -5 -30 -9 7 -4
-3 -8 -21 -8 -21 0 -41 -9 -57 -25 -14 -13 -25 -21 -25 -17 0 4 -10 -8 -21
-25 -12 -18 -25 -30 -30 -27 -5 3 -8 0 -7 -8 2 -7 -5 -13 -14 -13 -9 0 -20 -4
-25 -9 -4 -5 -3 -6 5 -2 6 4 12 2 12 -4 0 -7 -7 -10 -15 -6 -8 3 -29 -7 -47
-22 -31 -24 -32 -25 -13 -2 11 13 31 35 45 48 20 19 17 18 -14 -5 -35 -24 -39
-25 -33 -8 7 19 6 19 -7 3 -7 -10 -18 -18 -24 -18 -6 0 -15 -6 -19 -13 -13
-22 -82 -59 -94 -51 -8 5 -9 3 -5 -5 5 -8 0 -14 -13 -18 -11 -3 -18 -10 -14
-16 3 -5 2 -7 -4 -4 -5 3 -25 -3 -43 -15 -20 -12 -29 -14 -22 -6 6 8 8 19 4
23 -4 5 -1 5 7 0 10 -6 12 -4 6 4 -5 9 -16 5 -38 -16 l-31 -28 19 30 c13 21
14 26 3 18 -8 -7 -19 -9 -23 -5 -5 4 -5 2 -2 -4 3 -6 -7 -21 -23 -32 l-29 -22
20 35 c24 40 74 79 89 70 6 -4 9 -1 8 6 -2 7 6 14 17 15 11 1 33 7 48 13 16 6
34 8 40 4 7 -3 9 -2 4 2 -4 5 19 25 52 46 33 20 69 51 82 68 20 27 108 69 132
63 4 -1 7 3 7 9 0 5 5 7 10 4 6 -3 13 1 16 9 3 9 15 14 27 12 25 -3 36 -26 13
-26 -9 0 -16 -4 -16 -10 0 -18 19 -10 36 15 9 14 21 25 27 25 5 0 25 16 44 35
26 27 30 35 17 35 -16 0 -16 1 1 14 11 8 23 12 27 10 4 -2 9 0 13 6 4 6 11 7
17 4 7 -4 8 -2 4 4 -4 6 11 19 36 32 24 11 54 27 68 35 32 19 33 19 21 -3z
m59 -2 c-6 -11 -15 -20 -21 -20 -6 0 -8 -4 -4 -9 3 -5 1 -13 -5 -16 -6 -4 -10
-3 -9 2 4 22 -2 34 -13 27 -7 -4 -10 -4 -6 1 9 10 50 33 61 34 4 1 3 -8 -3
-19z m128 -26 c1 -1 -6 -4 -16 -7 -11 -2 -26 0 -33 5 -11 7 -9 8 5 4 14 -5 17
-2 12 10 -6 15 -4 15 11 3 10 -7 19 -14 21 -15z m-591 -1 c-9 -2 -14 -9 -11
-15 4 -6 2 -8 -4 -4 -5 3 -12 1 -14 -6 -3 -7 -7 -5 -11 6 -4 9 -3 15 2 11 5
-3 12 -1 16 5 3 5 14 9 23 9 15 -1 15 -2 -1 -6z m938 -3 c3 -6 -1 -7 -9 -4
-18 7 -21 14 -7 14 6 0 13 -4 16 -10z m-485 -30 c-6 -11 -13 -20 -16 -20 -2 0
0 9 6 20 6 11 13 20 16 20 2 0 0 -9 -6 -20z m140 10 c0 -5 -7 -10 -15 -10 -9
0 -18 -6 -21 -13 -3 -8 -11 -14 -19 -14 -12 0 -12 3 -2 16 10 12 9 14 -5 8
-10 -3 -18 -2 -18 3 0 7 18 13 68 19 6 0 12 -3 12 -9z m406 -47 c17 -23 34
-40 38 -36 5 6 10 -12 7 -29 0 -5 4 -8 9 -8 13 0 13 6 0 30 -7 13 -7 21 0 25
6 3 14 -4 19 -17 8 -19 10 -20 10 -4 1 15 4 16 16 6 8 -7 15 -19 15 -27 0 -8
5 -11 10 -8 6 4 10 3 9 -2 -4 -22 2 -43 11 -38 13 8 13 -1 -2 -28 -11 -21 -10
-21 8 -7 10 8 16 11 12 6 -3 -4 -2 -21 2 -37 8 -26 -2 -50 -13 -32 -2 5 -3 3
-1 -3 1 -5 -3 -50 -8 -100 -6 -49 -11 -97 -11 -106 -1 -9 -3 -15 -6 -13 -2 3
-10 -3 -18 -13 -13 -15 -13 -15 -3 5 10 21 15 81 10 133 -2 25 -2 25 -10 -3
-5 -16 -7 -37 -5 -47 2 -11 -1 -22 -6 -25 -5 -4 -7 -10 -4 -15 3 -5 1 -11 -5
-15 -5 -3 -14 -24 -20 -46 -6 -23 -13 -39 -15 -37 -2 2 1 21 6 43 6 22 11 47
13 55 1 9 5 21 9 27 8 13 8 147 0 176 -2 9 -9 14 -15 11 -7 -4 -8 -2 -4 5 4 6
2 18 -4 26 -6 8 -8 20 -4 26 4 8 3 9 -4 5 -7 -4 -12 -1 -12 8 0 8 -9 20 -20
26 -11 6 -18 16 -14 21 3 6 -2 16 -12 23 -12 9 -14 15 -6 20 7 4 12 12 12 18
0 6 -6 6 -15 -2 -9 -7 -18 -10 -22 -6 -3 3 -2 6 4 6 5 0 10 7 10 15 0 9 -6 14
-13 11 -7 -3 -15 1 -17 8 -12 30 30 8 59 -31z m-492 21 c3 -8 2 -12 -4 -9 -6
3 -10 10 -10 16 0 14 7 11 14 -7z m-591 -29 c-3 -9 -8 -14 -10 -11 -3 3 -2 9
2 15 9 16 15 13 8 -4z m913 6 c-3 -5 1 -11 9 -14 10 -5 13 -18 10 -54 -4 -35
-2 -42 4 -28 9 18 10 17 10 -8 1 -16 -3 -26 -8 -23 -5 3 -12 -6 -15 -19 -4
-14 -11 -23 -16 -20 -6 3 -10 2 -10 -3 0 -5 -7 -9 -15 -9 -20 0 -19 4 10 60
15 27 21 47 14 47 -6 0 -9 7 -6 15 4 8 2 17 -3 20 -10 6 4 45 16 45 3 0 3 -4
0 -9z m-944 -23 c-7 -7 -12 -8 -12 -2 0 14 12 26 19 19 2 -3 -1 -11 -7 -17z
m185 2 c-14 -11 -30 -20 -35 -20 -6 0 -14 -4 -17 -10 -7 -11 23 -3 41 11 6 5
13 6 17 3 3 -3 15 0 27 6 12 7 20 8 17 3 -3 -5 -25 -18 -49 -28 -24 -11 -46
-24 -50 -30 -4 -5 -8 -6 -8 -1 0 5 -6 4 -12 -1 -7 -5 -23 -10 -35 -11 -23 -1
-117 -52 -98 -52 6 0 19 6 30 13 11 8 29 17 40 20 16 6 15 3 -5 -13 -14 -11
-31 -20 -37 -20 -7 0 -13 -5 -13 -11 0 -8 -5 -8 -15 1 -12 10 -20 9 -42 -4
-19 -12 -15 -5 12 19 24 21 32 33 20 29 -11 -4 -18 -5 -15 -3 41 35 54 43 41
27 -20 -26 0 -22 34 8 17 14 24 23 18 19 -7 -3 -13 -4 -13 -1 0 7 57 37 67 34
15 -3 63 14 63 23 0 5 10 9 21 9 21 0 21 -1 -4 -20z m837 -62 c-3 -4 0 -17 6
-28 6 -11 7 -20 3 -20 -5 0 -7 -19 -5 -42 l3 -43 -15 33 c-9 18 -13 39 -10 47
3 8 -1 28 -9 44 -8 16 -13 32 -10 35 8 7 42 -17 37 -26z m-384 -13 c-19 -20
-20 -25 -7 -25 9 0 20 8 26 17 7 14 9 13 8 -9 -1 -14 -5 -24 -8 -22 -4 2 -14
-5 -24 -16 -10 -11 -15 -20 -11 -20 5 0 -6 -16 -23 -35 -29 -33 -43 -74 -22
-60 14 8 23 -31 16 -67 -5 -22 -10 -27 -16 -17 -5 8 -3 16 4 21 9 6 8 8 -2 8
-7 0 -11 6 -8 15 4 8 2 17 -3 20 -6 4 -10 -7 -10 -24 0 -16 -4 -32 -8 -35 -5
-3 -8 -19 -7 -35 1 -17 -2 -28 -6 -26 -4 3 -10 -1 -12 -7 -3 -7 -3 3 0 22 3
19 10 39 14 45 13 13 11 27 -2 19 -8 -5 -8 -1 0 14 16 30 14 39 -4 16 -8 -10
-15 -38 -15 -61 0 -24 -4 -43 -10 -43 -5 0 -10 -8 -11 -17 0 -15 -2 -15 -9 2
-6 15 -9 5 -10 -35 -1 -42 -3 -50 -10 -34 -5 12 -13 25 -19 29 -16 9 -13 44 4
61 13 13 21 50 16 77 -1 5 2 6 6 4 5 -3 18 10 30 29 l21 33 -36 -21 c-21 -11
-44 -26 -52 -33 -18 -15 -62 -27 -54 -14 3 5 -1 9 -8 10 -10 0 -10 2 0 6 6 2
10 8 7 13 -6 10 15 8 32 -3 6 -4 15 -2 19 4 4 8 3 9 -4 5 -18 -11 -14 9 3 24
13 11 14 10 9 -4 -10 -26 21 -19 36 9 12 22 28 30 52 26 4 0 5 5 2 12 -2 7 5
23 16 35 11 12 17 22 13 22 -4 0 0 7 10 15 10 7 31 11 45 9 20 -3 23 -2 12 5
-8 5 -19 7 -25 4 -5 -3 3 8 19 25 17 18 32 32 35 32 2 0 -6 -11 -19 -25z
m-890 4 c0 -11 -27 -12 -34 -1 -2 4 4 9 15 9 10 1 19 -2 19 -8z m850 -9 c-8
-5 -10 -10 -5 -10 13 -1 -25 -30 -39 -30 -5 0 1 11 14 25 13 14 28 25 34 25 6
0 4 -5 -4 -10z m-752 -15 c3 -3 -2 -5 -11 -5 -9 0 -19 -5 -23 -12 -4 -7 -3 -8
4 -4 8 5 10 2 6 -8 -3 -9 -10 -13 -15 -10 -5 3 -9 1 -9 -4 0 -5 -21 -32 -47
-61 -34 -38 -49 -48 -55 -39 -6 9 -7 6 -4 -8 5 -14 -2 -28 -21 -47 -16 -14
-33 -32 -39 -39 -17 -20 -186 -173 -195 -176 -5 -2 -9 0 -9 5 0 12 20 40 20
28 0 -11 27 26 28 39 0 5 6 13 14 18 9 7 7 8 -8 4 -14 -5 -21 -2 -21 9 0 8 3
15 7 15 4 0 19 12 33 26 16 15 33 24 42 21 8 -4 14 -2 12 3 -1 5 18 27 42 50
43 40 58 49 46 30 -3 -5 0 -7 9 -4 8 3 17 13 20 21 5 13 4 14 -9 3 -9 -8 -15
-8 -15 -2 0 6 5 14 10 17 6 3 19 23 31 43 11 20 17 28 13 17 -10 -31 -10 -40
1 -42 6 -2 10 0 10 5 1 4 7 18 15 32 7 14 11 25 9 25 -2 0 6 14 18 30 12 17
23 25 23 18 0 -6 -7 -19 -16 -27 -8 -9 -10 -16 -4 -16 6 0 13 7 16 15 4 8 11
12 17 8 6 -3 7 -1 3 5 -11 18 2 31 26 27 11 -3 23 -7 26 -10z m402 -30 c0 -2
-13 -11 -30 -20 -33 -17 -38 -14 -14 9 14 15 44 22 44 11z m636 -7 c5 -7 3 -8
-6 -3 -10 6 -12 4 -7 -8 4 -10 0 -20 -11 -26 -9 -6 -12 -11 -5 -11 8 0 5 -12
-8 -35 -13 -21 -26 -32 -32 -28 -7 4 -5 -2 3 -12 9 -11 10 -16 3 -11 -7 4 -13
2 -13 -3 0 -6 -7 -11 -15 -11 -8 0 -15 -6 -15 -13 0 -8 -9 -22 -20 -32 -20
-18 -20 -18 -17 4 2 12 10 27 18 32 8 5 10 9 5 9 -6 0 3 14 19 30 16 17 25 30
21 30 -9 0 -33 -25 -72 -76 -26 -33 -31 -50 -13 -38 8 5 8 1 0 -14 -11 -21
-30 -37 -36 -30 -6 5 37 98 45 98 5 0 14 16 20 35 6 19 16 35 21 35 6 0 7 5 3
12 -4 7 -3 8 4 4 6 -3 16 3 22 14 6 11 16 20 22 20 7 0 6 -6 -2 -15 -10 -13
-6 -12 18 2 17 10 27 20 21 21 -6 3 -6 9 2 18 14 17 16 17 25 2z m-425 -19
c-12 -10 -23 -22 -24 -26 -1 -4 -9 -8 -17 -8 -8 0 -14 -8 -14 -17 1 -10 -9
-19 -23 -23 -17 -4 -23 -11 -19 -21 3 -9 1 -14 -7 -12 -21 4 -58 -13 -51 -24
4 -7 0 -6 -13 1 -14 7 -23 7 -33 -2 -9 -9 -8 -6 1 11 8 12 17 22 22 22 4 0 5
5 2 10 -3 6 3 11 14 12 12 0 26 1 33 2 7 1 30 19 52 41 25 25 47 39 59 37 10
-2 17 0 14 6 -4 5 1 9 10 9 13 0 11 -4 -6 -18z m71 -2 c-12 -13 -20 -26 -16
-29 3 -3 1 -9 -4 -12 -6 -3 -9 0 -8 6 3 20 30 58 40 58 5 0 0 -10 -12 -23z
m-152 -18 c-11 -19 -50 -45 -50 -33 0 3 -7 0 -17 -7 -9 -8 -19 -13 -22 -13
-12 3 -41 -23 -34 -30 4 -4 -1 -4 -10 0 -16 6 -14 10 15 35 23 20 27 27 13 23
-13 -4 -9 1 10 15 17 11 37 21 45 20 8 0 5 -4 -7 -9 -13 -5 -23 -12 -23 -14 0
-8 60 15 67 27 4 6 1 7 -7 2 -8 -5 -11 -4 -6 3 4 6 13 9 21 6 11 -5 12 -11 5
-25z m580 -14 c-6 -30 -8 -33 -9 -13 -1 25 8 62 14 56 2 -2 -1 -21 -5 -43z
m-488 -12 c-3 -16 -7 -22 -10 -15 -3 10 -8 9 -23 -4 -10 -9 -19 -12 -19 -6 0
7 44 48 56 52 1 0 -1 -12 -4 -27z m715 5 c-3 -8 -6 -5 -6 6 -1 11 2 17 5 13 3
-3 4 -12 1 -19z m147 6 c3 -8 2 -12 -4 -9 -6 3 -10 10 -10 16 0 14 7 11 14 -7z
m-32 -85 c-11 -37 -27 -31 -26 9 2 56 3 58 19 36 9 -13 11 -30 7 -45z m93 41
c-3 -5 -11 -10 -16 -10 -6 0 -7 5 -4 10 3 6 11 10 16 10 6 0 7 -4 4 -10z
m-1895 -4 c0 -3 -4 -8 -10 -11 -5 -3 -10 -1 -10 4 0 6 5 11 10 11 6 0 10 -2
10 -4z m1834 -27 c-2 -19 0 -28 7 -23 6 3 8 12 6 18 -3 7 -1 19 4 27 7 11 9
11 9 1 0 -8 10 -13 23 -12 46 4 57 0 57 -21 0 -11 -4 -17 -10 -14 -14 9 -13
-8 2 -23 9 -9 9 -15 -1 -24 -11 -11 -13 -10 -8 3 12 35 -41 10 -91 -43 -62
-66 -89 -74 -65 -19 9 20 15 47 15 61 0 14 2 20 4 13 8 -18 41 18 36 39 -4 17
3 48 11 48 3 0 3 -14 1 -31z m-1350 -34 c-5 -11 -2 -14 12 -9 11 4 26 12 34
18 9 6 8 2 -3 -11 -24 -27 -70 -22 -52 6 9 16 15 13 9 -4z m-27 -21 c-9 -10
-47 -12 -42 -3 4 5 11 7 16 4 5 -4 9 -1 9 5 0 6 5 8 11 5 6 -4 8 -9 6 -11z
m654 -15 c-5 -13 -10 -19 -10 -12 -1 15 10 45 15 40 3 -2 0 -15 -5 -28z m-251
6 c-7 -8 -18 -15 -24 -15 -6 0 -2 7 8 15 25 19 32 19 16 0z m1147 -25 c14 -11
21 -20 15 -20 -12 0 -60 39 -49 40 5 0 20 -9 34 -20z m-67 -34 l0 -31 -14 27
c-8 16 -17 32 -20 37 -3 5 3 7 14 4 15 -4 20 -14 20 -37z m-63 19 c0 -8 -3
-13 -5 -10 -3 3 -12 -1 -20 -8 -13 -10 -14 -9 -3 11 13 25 28 29 28 7z m-797
-37 c-3 -51 -1 -60 12 -52 7 4 8 3 4 -5 -13 -20 -37 8 -32 38 2 14 5 32 5 39
1 6 4 12 7 12 3 0 5 -15 4 -32z m262 25 c-6 -2 -10 -9 -6 -14 10 -17 -7 -31
-22 -18 -12 10 -12 14 3 25 10 7 23 13 28 13 6 0 4 -3 -3 -6z m197 -58 c-13
-19 -34 -39 -47 -45 -22 -9 -21 -6 9 31 19 22 38 47 44 55 6 8 11 10 13 4 2
-6 -7 -26 -19 -45z m-672 15 c-5 -28 15 -64 66 -120 8 -8 17 -31 21 -50 3 -19
3 -30 -2 -24 -9 14 -55 39 -65 36 -5 -1 -6 2 -2 8 3 6 11 8 16 4 6 -3 1 13
-11 35 -11 23 -27 44 -34 47 -19 7 -10 94 10 94 3 0 3 -13 1 -30z m515 -9 c8
11 9 11 5 -1 -2 -8 -9 -15 -14 -15 -17 0 -28 -15 -12 -15 10 -1 9 -3 -3 -11
-10 -5 -18 -16 -18 -23 0 -8 -6 -19 -14 -25 -8 -7 -13 -23 -11 -36 1 -14 -2
-22 -6 -19 -5 2 -14 -4 -21 -16 -17 -27 -30 -26 -26 3 2 22 -2 27 -24 27 -9 0
-8 -4 2 -10 11 -7 11 -10 2 -10 -7 0 -10 -4 -7 -10 3 -5 2 -10 -4 -10 -20 0
-23 22 -5 41 9 10 14 20 11 20 -25 5 -34 4 -46 -5 -9 -7 -7 0 4 18 17 25 20
26 30 12 17 -22 28 -20 16 2 -7 13 -6 23 2 32 10 10 9 12 -5 7 -10 -3 -20 -2
-22 2 -3 5 5 8 17 8 27 0 57 12 57 24 0 4 -8 5 -17 2 -16 -6 -16 -5 -4 10 7 9
20 17 28 17 20 0 28 -27 13 -45 -7 -9 -10 -18 -7 -22 4 -3 2 -15 -4 -27 -10
-20 -9 -20 5 -3 8 11 13 24 10 31 -3 7 7 18 21 26 25 13 34 30 15 30 -5 0 -6
8 -3 17 5 14 8 12 16 -11 7 -22 12 -25 19 -15z m-232 25 c0 -2 -6 -9 -14 -15
-11 -9 -16 -9 -22 0 -4 7 -3 9 4 5 6 -3 13 -2 17 4 6 10 15 14 15 6z m290 1
c0 -2 -10 -12 -22 -23 l-23 -19 19 23 c18 21 26 27 26 19z m-1280 -37 c-6 -11
-13 -20 -16 -20 -2 0 0 9 6 20 6 11 13 20 16 20 2 0 0 -9 -6 -20z m64 8 c-3
-5 -9 -6 -14 -3 -4 3 -11 -2 -14 -11 -4 -9 -2 -13 5 -8 8 4 8 0 0 -15 -9 -17
-9 -20 3 -15 8 3 17 12 20 19 3 8 14 19 25 24 20 11 20 10 5 -21 -8 -18 -22
-50 -31 -70 -9 -21 -19 -38 -24 -38 -4 0 -5 -9 -2 -20 3 -11 1 -20 -5 -20 -22
0 -23 166 0 181 14 9 38 7 32 -3z m438 -47 c7 10 8 8 3 -8 -3 -12 -1 -24 5
-28 5 -3 10 -18 10 -33 0 -19 3 -23 9 -13 6 9 9 5 9 -13 0 -24 -2 -25 -14 -9
-7 10 -14 14 -14 9 0 -5 -7 -3 -15 4 -8 7 -15 9 -15 5 0 -4 -7 -2 -15 5 -8 7
-15 22 -15 33 0 31 -13 11 -15 -23 -1 -18 5 -35 14 -43 14 -11 14 -10 2 6 -8
10 -9 17 -3 17 22 0 23 -22 3 -41 -12 -11 -21 -25 -21 -32 0 -7 4 -6 10 3 7
12 9 10 7 -7 0 -12 -5 -19 -11 -16 -5 4 -7 -1 -3 -10 3 -10 4 -17 2 -17 -3 0
-13 18 -21 41 -12 28 -19 37 -25 28 -6 -11 -9 -10 -13 1 -2 8 -7 22 -9 30 -3
8 -6 3 -6 -12 -1 -20 -6 -28 -18 -27 -10 0 -13 3 -6 5 8 4 9 14 2 36 -12 42
-20 48 -16 11 3 -17 -1 -30 -7 -30 -7 0 -13 10 -14 21 -5 53 -1 72 19 86 29
19 49 21 42 4 -4 -10 0 -12 11 -8 9 3 16 11 16 17 0 5 8 1 18 -10 15 -19 20
-19 37 -7 15 11 20 11 27 1 5 -7 8 -1 9 18 1 20 3 24 6 11 4 -15 7 -16 15 -5z
m78 -2 c0 -5 -4 -9 -8 -9 -5 0 -9 7 -9 15 0 8 4 12 9 9 4 -3 8 -9 8 -15z m62
-47 c5 -2 6 -8 2 -13 -3 -5 0 -9 7 -9 7 0 10 -3 6 -6 -21 -21 63 -124 102
-124 25 0 32 -10 21 -31 -8 -14 -6 -21 12 -31 13 -6 28 -13 35 -14 19 -3 49
-23 35 -24 -7 0 -10 -4 -7 -10 4 -6 -1 -7 -11 -3 -12 4 -15 3 -10 -5 11 -17
-19 -15 -34 3 -10 12 -8 14 9 10 12 -2 21 0 21 5 0 11 -30 21 -42 13 -7 -3 -8
-1 -4 5 4 7 1 12 -9 12 -9 0 -34 9 -55 20 -48 24 -51 17 -10 -21 16 -16 26
-29 21 -29 -11 0 -64 55 -62 64 1 3 -14 22 -33 41 -20 19 -31 35 -26 35 5 0
19 -10 31 -22 l21 -23 -7 25 c-4 14 -14 32 -22 40 -9 8 -13 10 -10 5 3 -6 -3
-11 -13 -12 -10 -1 -21 5 -24 13 -3 8 -1 14 3 14 5 0 11 -5 13 -12 3 -7 7 -5
11 6 4 9 3 15 -2 12 -11 -7 -44 30 -46 52 0 9 -4 23 -9 30 -5 8 -3 11 5 10 7
-2 18 7 23 19 10 22 11 22 30 -10 11 -18 24 -34 28 -35z m-380 19 c-13 -30
-18 -36 -23 -23 -5 14 -8 12 -11 -8 -4 -18 -6 -13 -6 15 -1 29 1 36 8 25 8
-13 11 -11 16 8 4 12 12 22 19 22 11 0 10 -9 -3 -39z m21 -7 c-10 -19 -19 -31
-21 -24 -4 10 24 60 33 60 3 0 -3 -16 -12 -36z m1077 22 c0 -2 -7 -7 -16 -10
-8 -3 -12 -2 -9 4 6 10 25 14 25 6z m-93 -20 c0 -8 -6 -12 -12 -10 -7 3 -18
-3 -26 -12 -12 -16 -12 -17 4 -11 11 4 16 3 12 -3 -3 -6 -14 -10 -23 -11 -10
0 -12 -3 -5 -6 10 -3 10 -10 2 -24 -5 -11 -15 -16 -21 -13 -6 4 -8 3 -5 -3 8
-12 -30 -104 -47 -115 -6 -4 -14 0 -18 10 -10 25 -9 32 3 32 5 0 7 -6 3 -12
-6 -9 -3 -9 9 1 19 15 18 78 -1 74 -6 -2 -9 4 -6 12 5 12 9 11 23 -6 16 -19
16 -19 17 12 2 45 91 128 91 85z m33 10 c0 -3 -4 -8 -10 -11 -5 -3 -10 -1 -10
4 0 6 5 11 10 11 6 0 10 -2 10 -4z m69 -48 c-9 -16 -14 -19 -17 -9 -2 7 2 17
9 22 20 13 21 11 8 -13z m-39 -2 c0 -2 -8 -10 -17 -17 -16 -13 -17 -12 -4 4
13 16 21 21 21 13z m-319 -29 c-10 -9 -11 -8 -5 6 3 10 9 15 12 12 3 -3 0 -11
-7 -18z m680 -16 c-7 -11 -17 -20 -23 -18 -7 1 -18 -15 -25 -36 -17 -50 -70
-127 -86 -124 -7 1 -11 -5 -11 -14 1 -10 -5 -16 -15 -14 -9 1 -20 -3 -24 -9
-6 -7 -7 -6 -4 4 2 8 10 14 17 12 8 -2 10 3 6 13 -3 9 -2 13 3 10 5 -3 12 -1
16 5 4 6 10 8 15 5 4 -3 10 4 13 15 7 27 -13 37 -30 15 -7 -11 -13 -15 -13 -9
0 5 -4 3 -9 -5 -6 -9 -11 -10 -15 -2 -4 6 -2 11 4 11 6 0 8 5 4 12 -4 6 -3 8
2 5 5 -3 21 4 34 15 14 11 19 16 11 12 -9 -5 -12 -3 -7 4 4 7 3 12 -2 12 -6 0
-13 -7 -16 -16 -3 -8 -10 -13 -14 -10 -5 3 -14 -6 -20 -19 -7 -14 -16 -25 -22
-25 -6 0 -9 -4 -6 -8 3 -5 -1 -9 -8 -9 -7 0 -12 10 -11 21 1 12 -3 25 -9 29
-7 5 -5 7 5 5 9 -2 26 8 38 22 15 18 19 20 14 6 -6 -17 -5 -17 18 -3 13 8 38
14 56 13 23 -2 30 1 26 11 -4 10 -9 11 -19 2 -18 -15 -18 -2 0 16 12 12 15 12
20 -2 5 -13 12 -9 31 20 36 52 81 75 56 28z m-1543 -37 c3 -50 -8 -62 -25 -26
-13 26 -13 33 -1 46 19 22 23 20 26 -20z m359 -6 c-3 -8 -6 -5 -6 6 -1 11 2
17 5 13 3 -3 4 -12 1 -19z m590 -10 c-3 -7 -5 -2 -5 12 0 14 2 19 5 13 2 -7 2
-19 0 -25z m-1059 -48 c9 -7 9 -7 2 2 -5 7 -10 19 -10 28 0 8 12 -3 25 -25 15
-24 23 -48 19 -60 -4 -16 -3 -17 5 -5 8 12 11 12 11 1 0 -9 8 -11 25 -7 19 5
23 3 18 -9 -3 -9 -18 -19 -34 -22 -16 -3 -26 -10 -22 -16 3 -6 1 -7 -5 -3 -6
4 -20 3 -30 -3 -21 -11 -52 3 -52 24 0 8 -8 12 -20 10 -11 -2 -20 1 -20 6 0 5
8 9 18 7 10 -2 16 2 14 10 -1 7 -3 24 -4 37 -1 14 -6 25 -11 25 -5 0 -6 -8 -2
-17 5 -14 4 -15 -6 -6 -10 10 -9 16 4 31 9 10 17 22 17 26 0 4 6 13 13 20 10
12 14 9 22 -15 6 -15 16 -33 23 -39z m1515 57 c3 -8 -1 -14 -8 -14 -7 0 -11 6
-8 14 3 7 6 13 8 13 2 0 5 -6 8 -13z m124 -22 c0 -8 -4 -12 -9 -9 -5 3 -6 10
-3 15 9 13 12 11 12 -6z m-1565 -59 c-7 -13 -21 16 -14 32 4 13 7 12 12 -4 4
-10 5 -23 2 -28z m951 17 c-3 -10 -10 -24 -16 -30 -6 -9 -5 -13 3 -13 10 0 10
-3 0 -15 -23 -28 -29 -15 -13 30 8 25 19 45 24 45 4 0 6 -8 2 -17z m930 10
c-7 -2 -9 -12 -6 -21 6 -18 5 -17 -14 8 -10 13 -8 16 10 17 12 0 17 -1 10 -4z
m-1133 -46 c8 -3 0 -5 -17 -4 -18 1 -33 5 -33 9 0 4 -7 8 -16 8 -8 0 -12 4 -9
10 4 6 16 5 33 -4 15 -7 34 -16 42 -19z m860 23 c0 -5 -5 -10 -11 -10 -5 0 -7
5 -4 10 3 6 8 10 11 10 2 0 4 -4 4 -10z m-1530 -40 c0 -5 -5 -10 -11 -10 -5 0
-7 5 -4 10 3 6 8 10 11 10 2 0 4 -4 4 -10z m1474 -5 c-4 -8 -11 -15 -16 -15
-6 0 -5 6 2 15 7 8 14 15 16 15 2 0 1 -7 -2 -15z m-1729 -44 c3 -5 2 -12 -3
-15 -5 -3 -9 1 -9 9 0 17 3 19 12 6z m629 -47 c4 -14 11 -22 16 -19 6 3 10 -3
10 -14 0 -12 -2 -21 -4 -21 -9 0 -47 60 -51 81 -6 30 21 6 29 -27z m936 16 c0
-5 -2 -10 -4 -10 -3 0 -8 5 -11 10 -3 6 -1 10 4 10 6 0 11 -4 11 -10z m-1260
-71 c0 -6 -4 -7 -10 -4 -5 3 -10 11 -10 16 0 6 5 7 10 4 6 -3 10 -11 10 -16z
m100 -4 c7 -9 8 -15 2 -15 -5 0 -12 7 -16 15 -3 8 -4 15 -2 15 2 0 9 -7 16
-15z m-160 -4 c0 -5 -10 -11 -22 -15 -35 -9 -42 -7 -30 7 12 14 52 20 52 8z
m307 -16 c0 -8 -4 -12 -9 -9 -4 3 -8 9 -8 15 0 5 4 9 8 9 5 0 9 -7 9 -15z
m1567 -11 c-3 -27 -24 -59 -24 -37 0 14 18 63 23 63 3 0 3 -12 1 -26z m-27 1
c0 -8 -4 -12 -9 -9 -5 3 -6 10 -3 15 9 13 12 11 12 -6z m-30 -27 c-3 -7 -5 -2
-5 12 0 14 2 19 5 13 2 -7 2 -19 0 -25z m-1677 -42 c0 -3 -4 -8 -10 -11 -5 -3
-10 -1 -10 4 0 6 5 11 10 11 6 0 10 -2 10 -4z m-673 -38 c-3 -8 -6 -5 -6 6 -1
11 2 17 5 13 3 -3 4 -12 1 -19z m578 13 c-18 -7 -55 -4 -55 5 0 2 17 4 38 3
28 0 32 -2 17 -8z m827 -20 c-3 -9 -1 -12 6 -7 14 9 15 -3 2 -24 -6 -9 -5 -17
3 -22 8 -5 4 -8 -10 -8 -12 0 -25 5 -28 10 -3 6 -2 10 3 10 11 0 9 37 -3 47
-4 5 -5 3 -1 -4 3 -6 2 -14 -3 -17 -5 -4 -8 2 -6 11 2 10 4 18 4 18 1 1 9 1
20 1 12 0 17 -5 13 -15z m-288 -137 c3 -8 2 -12 -4 -9 -6 3 -10 10 -10 16 0
14 7 11 14 -7z m212 -186 c5 -7 3 -8 -6 -3 -9 5 -10 1 -6 -16 6 -20 5 -21 -4
-6 -6 9 -8 22 -5 27 8 13 12 13 21 -2z m34 -2 c0 -3 -4 -8 -10 -11 -5 -3 -10
-1 -10 4 0 6 5 11 10 11 6 0 10 -2 10 -4z m-91 -241 c-10 -10 -18 -11 -29 -4
-13 9 -12 10 3 5 11 -3 20 0 24 10 3 8 8 12 11 9 3 -3 -1 -12 -9 -20z m498
-121 c0 -8 -2 -12 -5 -10 -2 3 -15 1 -28 -4 -15 -6 -24 -6 -24 0 0 6 7 10 16
10 8 0 13 4 10 8 -2 4 3 8 13 9 10 1 18 -5 18 -13z m446 -29 c-3 -9 -8 -14
-10 -11 -3 3 -2 9 2 15 9 16 15 13 8 -4z m-395 -9 c-7 -8 -15 -12 -17 -11 -5
6 10 25 20 25 5 0 4 -6 -3 -14z m343 -59 c-10 -9 -11 -8 -5 6 3 10 9 15 12 12
3 -3 0 -11 -7 -18z m-206 -78 c-4 -5 -12 -9 -18 -8 -9 0 -8 2 1 6 6 2 9 10 6
15 -4 7 -2 8 5 4 6 -4 9 -12 6 -17z m-44 -12 c-6 -8 -8 -16 -5 -20 3 -3 -3 -3
-15 0 -11 3 -18 9 -15 14 3 5 9 7 14 4 5 -3 11 -1 15 5 3 5 9 10 12 10 3 0 0
-6 -6 -13z m-1020 -10 c-6 -8 -7 -18 -3 -22 4 -5 1 -5 -6 -1 -10 6 -10 11 -1
22 6 8 14 14 16 14 3 0 0 -6 -6 -13z m1086 -12 c0 -8 -4 -12 -9 -9 -5 3 -6 10
-3 15 9 13 12 11 12 -6z m-917 -16 c0 -5 -4 -9 -8 -9 -5 0 -9 7 -9 15 0 8 4
12 9 9 4 -3 8 -9 8 -15z m178 6 c3 -3 -4 -4 -16 -2 -12 2 -24 6 -28 10 -4 3 4
4 16 2 12 -2 25 -7 28 -10z m789 -57 c-3 -8 -6 -5 -6 6 -1 11 2 17 5 13 3 -3
4 -12 1 -19z m-917 -4 c0 -8 -19 -13 -24 -6 -3 5 1 9 9 9 8 0 15 -2 15 -3z
m847 -26 c-3 -8 -6 -5 -6 6 -1 11 2 17 5 13 3 -3 4 -12 1 -19z m133 -148 c0
-5 6 -7 14 -4 8 3 16 1 20 -4 3 -5 -5 -7 -17 -6 -12 1 -25 3 -29 3 -12 1 -9
21 2 21 6 0 10 -4 10 -10z m-784 -492 c14 -28 15 -31 2 -20 -14 11 -31 52 -22
52 2 0 11 -15 20 -32z"/>
<path d="M1289 2603 c-13 -16 -12 -17 4 -4 9 7 17 15 17 17 0 8 -8 3 -21 -13z"/>
<path d="M1285 2574 l-30 -26 33 22 c17 12 32 23 32 26 0 7 -4 5 -35 -22z"/>
<path d="M2383 2656 c3 -8 11 -33 17 -55 12 -47 23 -55 15 -12 -7 39 -23 81
-31 81 -3 0 -4 -6 -1 -14z"/>
<path d="M1575 2450 c-3 -5 -1 -10 4 -10 6 0 11 5 11 10 0 6 -2 10 -4 10 -3 0
-8 -4 -11 -10z"/>
<path d="M925 2570 c6 -30 16 -40 12 -12 -2 12 -6 24 -10 28 -3 4 -4 -4 -2
-16z"/>
<path d="M2531 2444 c-12 -15 -21 -32 -21 -38 0 -8 3 -8 8 0 4 6 15 13 24 17
9 3 22 15 28 26 16 32 -14 27 -39 -5z m29 6 c0 -5 -5 -10 -11 -10 -5 0 -7 5
-4 10 3 6 8 10 11 10 2 0 4 -4 4 -10z"/>
<path d="M2474 2350 c0 -13 4 -16 10 -10 7 7 7 13 0 20 -6 6 -10 3 -10 -10z"/>
<path d="M1937 2252 c-15 -17 -15 -18 3 -19 11 -1 22 2 25 8 4 5 1 9 -5 9 -6
0 -8 5 -5 10 10 16 -1 12 -18 -8z"/>
<path d="M1222 2200 c0 -14 2 -19 5 -12 2 6 2 18 0 25 -3 6 -5 1 -5 -13z"/>
<path d="M2420 2025 c-7 -9 -8 -15 -2 -15 5 0 12 7 16 15 3 8 4 15 2 15 -2 0
-9 -7 -16 -15z"/>
<path d="M2314 2008 l-19 -23 23 19 c21 18 27 26 19 26 -2 0 -12 -10 -23 -22z"/>
<path d="M1780 2981 c0 -8 41 -23 47 -17 2 1 -8 8 -22 14 -14 6 -25 8 -25 3z"/>
<path d="M1350 2920 c-8 -5 -33 -7 -54 -5 -26 4 -42 1 -48 -7 -6 -10 -8 -10
-8 0 0 7 -4 10 -10 7 -21 -13 -10 -32 15 -27 14 2 23 7 21 11 -2 3 25 5 61 4
55 -2 63 0 53 13 -15 17 -11 16 -30 4z"/>
<path d="M1163 2897 c-17 -7 -35 -15 -38 -19 -9 -9 17 -4 34 6 11 7 13 5 8 -7
-5 -14 -3 -15 13 -5 10 7 17 15 14 19 -2 4 2 10 8 12 26 11 -8 5 -39 -6z"/>
<path d="M1057 2845 c-15 -14 -24 -25 -19 -25 9 0 52 37 52 45 0 8 -4 6 -33
-20z"/>
<path d="M2331 2827 c2 -1 12 -9 22 -16 15 -12 17 -12 11 3 -3 9 -13 16 -22
16 -8 0 -13 -1 -11 -3z"/>
<path d="M789 2663 c-13 -16 -12 -17 4 -4 9 7 17 15 17 17 0 8 -8 3 -21 -13z"/>
<path d="M2700 2540 c0 -5 5 -10 11 -10 5 0 7 5 4 10 -3 6 -8 10 -11 10 -2 0
-4 -4 -4 -10z"/>
<path d="M2627 2521 c-3 -13 -1 -18 8 -14 19 7 27 33 11 33 -8 0 -16 -9 -19
-19z"/>
<path d="M618 2467 c3 -14 1 -18 -6 -13 -7 4 -12 2 -12 -5 0 -6 -10 -20 -22
-30 -27 -24 -20 -33 7 -11 21 18 55 62 55 73 0 3 -6 6 -14 6 -8 0 -11 -8 -8
-20z"/>
<path d="M371 1774 c0 -11 3 -14 6 -6 3 7 2 16 -1 19 -3 4 -6 -2 -5 -13z"/>
<path d="M2086 1631 c-4 -5 3 -7 14 -4 23 6 26 13 6 13 -8 0 -17 -4 -20 -9z"/>
<path d="M1914 1521 c4 -6 16 -16 28 -22 15 -8 18 -8 14 0 -4 6 -16 16 -28 22
-15 8 -18 8 -14 0z"/>
<path d="M1877 1438 c4 -7 8 -16 8 -20 0 -3 4 -10 9 -15 5 -4 6 -3 2 4 -3 6
-2 14 4 18 5 3 10 12 10 18 0 7 -4 6 -10 -3 -6 -10 -10 -11 -10 -2 0 6 -5 12
-11 12 -6 0 -7 -5 -2 -12z"/>
<path d="M1910 1394 c0 -8 5 -12 10 -9 6 4 8 11 5 16 -9 14 -15 11 -15 -7z"/>
<path d="M1370 1345 c-7 -9 -8 -15 -2 -15 5 0 12 7 16 15 3 8 4 15 2 15 -2 0
-9 -7 -16 -15z"/>
<path d="M988 1233 c-20 -20 -30 -24 -40 -16 -7 6 -34 11 -60 11 -25 0 -55 5
-66 11 -31 16 -68 13 -111 -9 -21 -10 -42 -16 -46 -12 -4 4 -6 -2 -4 -13 3
-16 19 -23 82 -35 43 -9 82 -22 87 -30 8 -14 7 -49 -6 -120 l-6 -35 29 33 c15
19 60 66 100 105 48 49 73 83 78 105 8 39 -2 41 -37 5z"/>
<path d="M2158 1123 c7 -3 16 -2 19 1 4 3 -2 6 -13 5 -11 0 -14 -3 -6 -6z"/>
<path d="M1520 1010 c-20 -12 -10 -19 14 -10 11 3 15 9 10 13 -6 3 -16 2 -24
-3z"/>
<path d="M880 1002 c0 -6 -12 -14 -27 -19 l-27 -9 32 -19 c24 -15 29 -22 20
-32 -21 -26 -11 -73 26 -114 29 -31 36 -47 36 -80 0 -37 2 -40 16 -28 9 7 23
14 32 15 8 2 20 10 25 20 5 9 18 25 28 35 21 21 25 34 7 23 -6 -4 -8 -3 -5 3
3 5 8 22 11 37 4 24 3 26 -17 19 -21 -7 -48 -8 -125 -5 l-33 2 21 30 c28 39
91 56 197 54 61 -1 86 2 94 13 7 8 8 13 3 11 -5 -2 -20 7 -34 20 -30 28 -61
37 -98 27 -37 -10 -99 -10 -144 0 -24 4 -38 4 -38 -3z"/>
<path d="M2597 738 c8 -59 13 -61 13 -5 0 26 -4 47 -9 47 -5 0 -7 -19 -4 -42z"/>
<path d="M2606 422 c-3 -5 1 -9 9 -9 8 0 12 4 9 9 -3 4 -7 8 -9 8 -2 0 -6 -4
-9 -8z"/>
<path d="M2895 330 c3 -5 18 -10 32 -10 32 0 28 5 -10 14 -19 4 -26 3 -22 -4z"/>
<path d="M2906 292 c-3 -5 1 -9 9 -9 8 0 12 4 9 9 -3 4 -7 8 -9 8 -2 0 -6 -4
-9 -8z"/>
<path d="M2646 270 c-18 -6 -18 -7 4 -13 28 -7 32 -6 22 9 -4 6 -16 8 -26 4z"/>
<path d="M2616 249 c3 -5 -1 -9 -8 -9 -8 0 -23 -6 -34 -14 -16 -13 -17 -14 -2
-12 10 1 21 5 24 9 11 11 36 8 29 -3 -3 -6 1 -7 10 -3 12 4 13 8 5 13 -9 6 -9
9 1 12 8 3 5 7 -9 10 -12 4 -20 2 -16 -3z"/>
<path d="M2385 220 c-3 -5 -2 -10 4 -10 5 0 13 5 16 10 3 6 2 10 -4 10 -5 0
-13 -4 -16 -10z"/>
<path d="M2401 188 l-25 -31 42 28 c47 31 50 35 25 34 -10 0 -29 -14 -42 -31z"/>
<path d="M2515 210 c-13 -6 -15 -9 -5 -9 8 0 22 4 30 9 18 12 2 12 -25 0z"/>
<path d="M1835 189 c-4 -6 -5 -12 -2 -15 2 -3 7 2 10 11 7 17 1 20 -8 4z"/>
<path d="M2458 191 c-2 -3 -28 -25 -59 -48 -62 -46 -122 -116 -111 -128 4 -5
2 -5 -5 -1 -6 3 -14 2 -18 -4 -10 -17 51 -12 65 6 8 8 22 20 33 26 17 9 19 8
13 -8 -4 -11 10 -2 33 20 22 22 39 42 36 44 -3 3 1 12 8 21 10 14 10 14 -5 3
-9 -8 -22 -11 -28 -7 -13 8 -62 -34 -55 -46 3 -4 1 -10 -3 -13 -8 -5 -9 17 -3
45 0 3 30 25 66 48 36 23 65 43 65 45 0 5 -30 2 -32 -3z m-33 -87 c14 -6 13
-9 -6 -30 -31 -33 -48 -30 -18 3 17 20 18 23 3 10 -28 -23 -41 -22 -19 3 21
23 18 22 40 14z m-79 -49 c-1 -8 -5 -18 -9 -22 -11 -11 -38 -13 -31 -2 3 5 10
6 16 3 7 -5 9 -2 5 8 -6 16 0 28 14 28 4 0 6 -7 5 -15z"/>
<path d="M2469 159 l-24 -20 28 17 c15 9 27 18 27 20 0 8 -8 4 -31 -17z"/>
<path d="M2479 148 c-5 -18 -6 -38 -1 -34 7 8 12 36 6 36 -2 0 -4 -1 -5 -2z"/>
<path d="M2539 53 c-13 -16 -12 -17 4 -4 16 13 21 21 13 21 -2 0 -10 -8 -17
-17z"/>
<path d="M2499 23 c-13 -16 -12 -17 4 -4 16 13 21 21 13 21 -2 0 -10 -8 -17
-17z"/>
</g>
</svg>
